:version 1.10
:name ASF
:units
  mass 1
  length 1
  angle deg
:documentation
  ASF file generated by Kaydara
:root
  axis xyz
  order  tx ty tz rx ry rz
  position 0 0 0
  orientation 0 0 0
:bonedata
  begin
    id 1
    name RightUpLegDummy
    direction -0.65628 -0.754516 0.00165102
    length 4.76918
    axis 0 0 0 xyz
  end
  begin
    id 2
    name RightUpLeg
    direction -0.145584 -0.923362 0.355256
    length 17.9961
    axis -24.7611 -13.1006 1.78531 xyz
    dof rx ry rz
  end
  begin
    id 3
    name RightLeg
    direction 0.263379 0.172355 -0.949171
    length 13.3386
    axis 89.6202 -21.1929 12.3855 xyz
    dof rx ry rz
  end
  begin
    id 4
    name RightFoot
    direction 0.224283 -0.968777 -0.105675
    length 5.86697
    axis 56.995 -39.6905 17.3365 xyz
    dof rx ry rz
  end
  begin
    id 5
    name RightToes
    direction -0.0806345 -0.9037 0.420506
    length 4.75197
    axis 146.825 -39.7828 17.6019 xyz
    dof rx ry rz
  end
  begin
    id 6
    name SpineDummy
    direction -3.39852e-014 1 9.33296e-014
    length 8.13779
    axis 0 0 0 xyz
  end
  begin
    id 7
    name Spine
    direction -0.156609 0.733703 0.661176
    length 7.14978
    axis 41.2365 5.68757 17.0844 xyz
    dof rx ry rz
  end
  begin
    id 8
    name Spine1
    direction 0 0 0
    length 0
    axis 42.8809 47.8308 -3.36039 xyz
    dof rx ry rz
  end
  begin
    id 9
    name HEadDummy
    direction 0.546431 0.701947 0.456819
    length 3.55512
    axis 42.8809 47.8308 -3.36039 xyz
  end
  begin
    id 10
    name HEad
    direction 0.23444 0.828559 0.508457
    length 7.35827
    axis 51.1864 49.2662 27.4903 xyz
    dof rx ry rz
  end
  begin
    id 11
    name LeftShoulder1Dummy
    direction 0.431183 0.475873 -0.766568
    length 2.49352
    axis 42.8809 47.8308 -3.36039 xyz
  end
  begin
    id 12
    name LeftShoulder1
    direction 0.268187 -0.383402 -0.883786
    length 4.48604
    axis -119.517 0.106469 35.1736 xyz
    dof rx ry rz
  end
  begin
    id 13
    name LeftArm
    direction 0.380567 -0.703221 -0.600541
    length 10.1142
    axis -5.41825 36.2925 7.8293 xyz
    dof rx ry rz
  end
  begin
    id 14
    name LeftForeArm
    direction 0.541071 -0.732356 -0.413396
    length 9.39839
    axis 4.65387 33.7604 7.81644 xyz
    dof rx ry rz
  end
  begin
    id 15
    name LeftHand
    direction 0.847511 -0.389379 -0.360707
    length 3.66142
    axis 7.65593 21.1436 -24.6758 xyz
    dof rx ry rz
  end
  begin
    id 16
    name RightShoulderDummy
    direction -0.692546 0.541855 0.476208
    length 2.49352
    axis 42.8809 47.8308 -3.36039 xyz
  end
  begin
    id 17
    name RightShoulder
    direction -0.870808 -0.316653 0.376065
    length 4.48602
    axis 141.571 51.133 -100.254 xyz
    dof rx ry rz
  end
  begin
    id 18
    name RightArm
    direction 0.366897 -0.87275 0.322015
    length 10.1142
    axis 92.3258 71.2036 138.917 xyz
    dof rx ry rz
  end
  begin
    id 19
    name RightForeArm
    direction 0.702487 -0.694568 0.155197
    length 9.39835
    axis 153.863 41.5092 -176.604 xyz
    dof rx ry rz
  end
  begin
    id 20
    name RightHand
    direction 0.79502 -0.601276 0.0800636
    length 3.66142
    axis 154.247 4.59222 142.9 xyz
    dof rx ry rz
  end
  begin
    id 21
    name LeftUpLegDummy
    direction 0.65628 -0.754516 0.00165102
    length 4.76919
    axis 0 0 0 xyz
  end
  begin
    id 22
    name LeftUpLeg
    direction -0.1277 -0.689368 0.713067
    length 17.9961
    axis -48.3385 -17.8675 0.791927 xyz
    dof rx ry rz
  end
  begin
    id 23
    name LeftLeg
    direction 0.109849 -0.991246 -0.0732378
    length 13.3386
    axis -2.05791 -7.30784 1.72042 xyz
    dof rx ry rz
  end
  begin
    id 24
    name LeftFoot
    direction 0.0448355 -0.272614 0.961078
    length 5.86697
    axis -18.7733 -7.89606 10.2113 xyz
    dof rx ry rz
  end
  begin
    id 25
    name LeftToes
    direction -0.18506 0.293668 0.937823
    length 4.75197
    axis 71.2267 -7.89606 10.2113 xyz
    dof rx ry rz
  end
:hierarchy
  begin
    root RightUpLegDummy SpineDummy LeftUpLegDummy
    RightUpLegDummy RightUpLeg
    RightUpLeg RightLeg
    RightLeg RightFoot
    RightFoot RightToes
    SpineDummy Spine
    Spine Spine1
    Spine1 HEadDummy LeftShoulder1Dummy RightShoulderDummy
    HEadDummy HEad
    LeftShoulder1Dummy LeftShoulder1
    LeftShoulder1 LeftArm
    LeftArm LeftForeArm
    LeftForeArm LeftHand
    RightShoulderDummy RightShoulder
    RightShoulder RightArm
    RightArm RightForeArm
    RightForeArm RightHand
    LeftUpLegDummy LeftUpLeg
    LeftUpLeg LeftLeg
    LeftLeg LeftFoot
    LeftFoot LeftToes
  end

:SAMPLES-PER-SECOND 30
:FULLY-SPECIFIED
:DEGREES
435
root  -4.46135 34.289 3.51539 -12.205 -62.2569 -2.82022
RightUpLeg  -6.70119 13.5082 17.3151
RightLeg  -68.9748 -16.8995 4.63548
RightFoot  26.4895 11.7456 -26.4491
RightToes  -1.27222e-014 -6.36111e-015 6.36111e-015
Spine  -14.1403 -23.2074 -7.97438
Spine1  -7.68468 -18.6752 78.5616
HEad  -2.47324 -3.37102 -15.3653
LeftShoulder1  6.36111e-015 -1.33558e-015 6.49777e-015
LeftArm  21.6337 -62.9304 -70.8351
LeftForeArm  -84.754 -47.4382 67.5572
LeftHand  0.507829 0.768916 2.21809
RightShoulder  -4.77083e-015 -6.36111e-015 -3.18055e-015
RightArm  69.3638 -44.1765 -18.3253
RightForeArm  -5.79317 -6.16169 -0.871539
RightHand  -0.605099 4.0348 -0.991471
LeftUpLeg  23.499 2.52161 7.98636
LeftLeg  55.9197 -6.32544 -3.45048
LeftFoot  11.3433 4.74473 -11.6984
LeftToes  1.27222e-014 -5.20697e-012 1.80337e-011
436
root  -5.55563 34.0647 3.76715 -12.0127 -66.5707 -6.16351
RightUpLeg  -2.72674 11.0584 20.6536
RightLeg  -65.3245 -16.4775 2.87075
RightFoot  24.7132 12.3965 -27.457
RightToes  -1.27222e-014 -6.36111e-015 6.36111e-015
Spine  -11.3374 -23.174 -12.3032
Spine1  -6.33581 -17.4682 81.2125
HEad  -5.22901 -18.6067 -12.6565
LeftShoulder1  6.36111e-015 -1.33558e-015 6.49777e-015
LeftArm  13.0136 -69.1836 -62.6777
LeftForeArm  -77.922 -50.6477 64.5424
LeftHand  0.682209 0.869171 3.61134
RightShoulder  -4.77083e-015 -6.36111e-015 -3.18055e-015
RightArm  65.8989 -40.2335 -32.2917
RightForeArm  -6.23865 -8.6938 1.61824
RightHand  0.565788 1.58087 -7.17636
LeftUpLeg  12.8111 0.490362 9.0397
LeftLeg  54.1399 -6.62415 -3.64873
LeftFoot  5.18836 4.11592 -11.8892
LeftToes  1.27222e-014 -5.20697e-012 1.80337e-011
437
root  -6.43198 34.2047 4.1483 -16.2258 -73.0479 -2.80237
RightUpLeg  0.598607 11.8916 22.0536
RightLeg  -62.941 -14.8036 -0.0946587
RightFoot  22.4537 12.579 -27.8574
RightToes  -1.27222e-014 -6.36111e-015 6.36111e-015
Spine  -10.2093 -24.3197 -17.2447
Spine1  -4.12399 -17.502 81.7251
HEad  -6.68356 -30.1915 -12.2529
LeftShoulder1  6.36111e-015 -1.33558e-015 6.49777e-015
LeftArm  5.20376 -67.6301 -53.4819
LeftForeArm  -65.9315 -57.029 61.3821
LeftHand  0.361136 0.560468 1.55601
RightShoulder  -4.77083e-015 -6.36111e-015 -3.18055e-015
RightArm  57.626 -36.8336 -31.8597
RightForeArm  -10.5364 -14.622 1.73966
RightHand  2.35449 -1.77017 -13.771
LeftUpLeg  3.77995 1.82946 8.16717
LeftLeg  44.1458 -7.90381 -3.85832
LeftFoot  5.9955 4.84989 -13.6909
LeftToes  1.27222e-014 -5.20697e-012 1.80337e-011
438
root  -7.07309 34.7866 4.68263 -35.9648 -80.3595 17.3227
RightUpLeg  4.15212 15.3682 22.3269
RightLeg  -63.1815 -12.4666 -3.53885
RightFoot  22.1151 14.7927 -31.2709
RightToes  -1.27222e-014 -6.36111e-015 6.36111e-015
Spine  -9.99293 -25.9385 -20.549
Spine1  -2.72685 -18.3327 78.648
HEad  -5.37918 -37.0397 -14.5368
LeftShoulder1  6.36111e-015 -1.33558e-015 6.49777e-015
LeftArm  5.00138 -59.5517 -50.5711
LeftForeArm  -43.2084 -62.0664 44.6206
LeftHand  0.086616 0.51243 -1.27576
RightShoulder  -4.77083e-015 -6.36111e-015 -3.18055e-015
RightArm  49.4502 -32.6854 -19.2106
RightForeArm  -17.1141 -20.4209 -1.21268
RightHand  3.59466 -3.89908 -17.2656
LeftUpLeg  -0.38769 3.34208 4.71135
LeftLeg  30.057 -9.54843 -3.577
LeftFoot  7.35585 5.41195 -14.723
LeftToes  1.27222e-014 -5.20697e-012 1.80337e-011
439
root  -7.69727 35.6551 5.36941 -121.383 -82.698 103.654
RightUpLeg  7.21235 18.897 22.8549
RightLeg  -64.5996 -10.4568 -6.75939
RightFoot  25.4207 18.149 -35.7426
RightToes  -1.27222e-014 -6.36111e-015 6.36111e-015
Spine  -11.7632 -25.8609 -19.8864
Spine1  -1.59456 -18.6554 69.4121
HEad  -2.47628 -40.8286 -16.6579
LeftShoulder1  6.36111e-015 -1.33558e-015 6.49777e-015
LeftArm  8.44921 -48.7716 -49.4184
LeftForeArm  -16.9361 -56.2237 18.4463
LeftHand  0.339032 1.81926 -3.65195
RightShoulder  -4.77083e-015 -6.36111e-015 -3.18055e-015
RightArm  42.9431 -29.0063 -8.6009
RightForeArm  -19.5716 -17.8686 -5.66875
RightHand  2.93974 -2.98849 -15.1285
LeftUpLeg  -0.0986169 4.80775 2.30351
LeftLeg  17.5217 -11.7438 -3.36021
LeftFoot  9.10816 6.61907 -17.1742
LeftToes  1.27222e-014 -5.20697e-012 1.80337e-011
440
root  -8.44738 36.6016 6.05911 -160.806 -70.7295 144.154
RightUpLeg  7.11249 18.9135 21.5786
RightLeg  -63.8762 -7.52008 -11.4603
RightFoot  34.7281 19.0373 -35.1257
RightToes  -1.27222e-014 -6.36111e-015 6.36111e-015
Spine  -14.666 -24.1577 -16.9995
Spine1  0.0226662 -17.9967 55.8023
HEad  0.0625058 -42.2881 -16.7019
LeftShoulder1  6.36111e-015 -1.33558e-015 6.49777e-015
LeftArm  12.1892 -36.8521 -45.7093
LeftForeArm  -6.20167 -42.6137 5.2621
LeftHand  0.666414 3.5237 -6.01671
RightShoulder  -4.77083e-015 -6.36111e-015 -3.18055e-015
RightArm  36.3219 -25.6737 -2.11467
RightForeArm  -18.8619 -8.13894 -9.63209
RightHand  1.45234 -0.0393172 -10.9219
LeftUpLeg  2.41325 8.60435 1.65457
LeftLeg  9.4734 -14.8828 -3.35236
LeftFoot  12.296 8.40634 -20.0992
LeftToes  1.27222e-014 -5.20697e-012 1.80337e-011
441
root  -9.42336 37.2552 6.65491 -168.719 -56.2547 152.631
RightUpLeg  2.63853 13.6783 17.196
RightLeg  -60.0405 -5.24134 -13.6947
RightFoot  48.3779 12.7947 -26.8563
RightToes  -1.27222e-014 -6.36111e-015 6.36111e-015
Spine  -17.025 -22.4281 -15.0382
Spine1  1.55451 -16.6819 43.2949
HEad  0.895413 -41.0492 -15.8108
LeftShoulder1  6.36111e-015 -1.33558e-015 6.49777e-015
LeftArm  15.8316 -23.551 -38.6791
LeftForeArm  -3.91747 -31.2096 0.960076
LeftHand  0.30658 3.34329 -8.67486
RightShoulder  -4.77083e-015 -6.36111e-015 -3.18055e-015
RightArm  30.6901 -19.1335 5.53166
RightForeArm  -19.3185 0.868779 -14.2759
RightHand  0.614254 1.91462 -8.28922
LeftUpLeg  5.01402 15.5942 1.17504
LeftLeg  5.48925 -19.2181 -3.60107
LeftFoot  13.8566 10.2209 -23.4638
LeftToes  1.27222e-014 -5.20697e-012 1.80337e-011
442
root  -10.6047 37.424 7.14828 -172.301 -42.0049 155.919
RightUpLeg  -2.53275 4.72742 12.7753
RightLeg  -56.1287 -10.0351 -6.49572
RightFoot  54.6562 4.09855 -19.2665
RightToes  -1.27222e-014 -6.36111e-015 6.36111e-015
Spine  -18.3592 -21.0427 -14.6611
Spine1  2.50806 -14.9367 33.7707
HEad  -0.267067 -37.9629 -15.2763
LeftShoulder1  6.36111e-015 -1.33558e-015 6.49777e-015
LeftArm  21.8011 -11.4969 -30.8909
LeftForeArm  -3.42189 -23.7207 -0.605199
LeftHand  -0.550578 1.24571 -11.0343
RightShoulder  -4.77083e-015 -6.36111e-015 -3.18055e-015
RightArm  26.0419 -10.7513 11.5588
RightForeArm  -20.9406 9.1709 -19.9283
RightHand  0.376178 2.2792 -6.97133
LeftUpLeg  6.59139 25.8539 1.32891
LeftLeg  4.31897 -23.2004 -4.0014
LeftFoot  12.5389 11.8896 -28.0142
LeftToes  1.27222e-014 -5.20697e-012 1.80337e-011
